<?xml version="1.0" encoding="UTF-8" standalone="no"?>
<!DOCTYPE svg PUBLIC "-//W3C//DTD SVG 1.1//EN" "http://www.w3.org/Graphics/SVG/1.1/DTD/svg11.dtd">
<!-- Generated by Microsoft Visio, SVG Export alice-0-.svg Page-1 -->
<svg xmlns="http://www.w3.org/2000/svg" xmlns:xlink="http://www.w3.org/1999/xlink" xmlns:ev="http://www.w3.org/2001/xml-events"
		width="8.5in" height="11in" viewBox="0 0 612 792" xml:space="preserve" color-interpolation-filters="sRGB" class="st9">
	<title>Alice&#39;s circuit</title>

	<style type="text/css">
	<![CDATA[
		.st1 {stroke:#000000;stroke-linecap:round;stroke-linejoin:round;stroke-width:1}
		.st2 {fill:#000000;stroke:#000000;stroke-linecap:round;stroke-linejoin:round;stroke-width:0.75}
		.st3 {fill:none;stroke:#000000;stroke-linecap:round;stroke-linejoin:round;stroke-width:1}
		.st4 {fill:#ffffff;stroke:#000000;stroke-linecap:round;stroke-linejoin:round;stroke-width:1}
		.st5 {fill:#000000;font-family:Calibri;font-size:1.00001em}
		.st6 {fill:#ffffff;stroke:none;stroke-linecap:round;stroke-linejoin:round;stroke-width:0.75}
		.st7 {font-size:1em}
		.st8 {fill:none;stroke:none;stroke-linecap:round;stroke-linejoin:round;stroke-width:0.75}
		.st9 {fill:none;fill-rule:evenodd;font-size:12px;overflow:visible;stroke-linecap:square;stroke-miterlimit:3}
	]]>
	</style>

	<g>
		<title>Page-1</title>
		<g id="group45-1" transform="translate(23.1373,-660.706)">
			<title>Sheet.45</title>
			<g id="group20-2" transform="translate(234.095,-12.8259)">
				<title>Sheet.20</title>
				<g id="shape15-3" transform="translate(795.288,751.267) rotate(90)">
					<title>Sheet.15</title>
					<path d="M0 792 L40.5 792" class="st1"/>
				</g>
				<g id="shape16-6" transform="translate(1.26585,-38.4248)">
					<title>Sheet.16</title>
					<ellipse cx="1.89776" cy="789.696" rx="1.89776" ry="2.30357" class="st2"/>
				</g>
				<g id="shape17-8">
					<title>Sheet.17</title>
					<ellipse cx="3.36579" cy="787.914" rx="3.36579" ry="4.08552" class="st3"/>
				</g>
			</g>
			<g id="shape21-10" transform="translate(89.5122,-53.6078)">
				<title>Sheet.21</title>
				<path d="M0 792 L259.51 792" class="st1"/>
			</g>
			<g id="shape3-13" transform="translate(163.657,-40.1078)">
				<title>Sheet.3</title>
				<desc>L Gate</desc>
				<rect x="0" y="765" width="51.9016" height="27" class="st4"/>
				<text x="10.42" y="782.1" class="st5">L Gate</text>			</g>
			<g id="shape22-16" transform="translate(89.5122,-16.8578)">
				<title>Sheet.22</title>
				<path d="M0 792 L259.51 792" class="st1"/>
			</g>
			<g id="shape23-19" transform="translate(89.5122,-90.465)">
				<title>Sheet.23</title>
				<path d="M0 792 L259.51 792" class="st1"/>
			</g>
			<g id="group24-22" transform="translate(253.669,-49.5364)">
				<title>Sheet.24</title>
				<g id="shape25-23" transform="translate(795.288,751.267) rotate(90)">
					<title>Sheet.25</title>
					<path d="M0 792 L40.5 792" class="st1"/>
				</g>
				<g id="shape26-26" transform="translate(1.26585,-38.4248)">
					<title>Sheet.26</title>
					<ellipse cx="1.89776" cy="789.696" rx="1.89776" ry="2.30357" class="st2"/>
				</g>
				<g id="shape27-28">
					<title>Sheet.27</title>
					<ellipse cx="3.36579" cy="787.914" rx="3.36579" ry="4.08552" class="st3"/>
				</g>
			</g>
			<g id="shape2-30" transform="translate(282.289,-76.1078)">
				<title>Sheet.2</title>
				<desc>R Gate</desc>
				<rect x="0" y="765" width="51.9016" height="27" class="st4"/>
				<text x="9.68" y="782.1" class="st5">R Gate</text>			</g>
			<g id="shape1-33" transform="translate(100.634,-76.1078)">
				<title>Sheet.1</title>
				<desc>S Gate</desc>
				<rect x="0" y="765" width="51.9016" height="27" class="st4"/>
				<text x="10.18" y="782.1" class="st5">S Gate</text>			</g>
			<g id="shape28-36" transform="translate(349.02,-76.1078)">
				<title>Sheet.28</title>
				<desc>50% |0&#62; 50% |1&#62;</desc>
				<rect x="0" y="765" width="51.9016" height="27" class="st6"/>
				<text x="5.43" y="774.9" class="st5">50% |0&#62; <tspan x="5.43" dy="1.2em" class="st7">50% |1&#62;</tspan></text>			</g>
			<g id="shape32-40" transform="translate(349.02,-39.4412)">
				<title>Sheet.32</title>
				<desc>50% |0&#62; 50% |1&#62;</desc>
				<rect x="0" y="765" width="51.9016" height="27" class="st6"/>
				<text x="5.43" y="774.9" class="st5">50% |0&#62; <tspan x="5.43" dy="1.2em" class="st7">50% |1&#62;</tspan></text>			</g>
			<g id="shape33-44" transform="translate(349.02,-2.77449)">
				<title>Sheet.33</title>
				<desc>50% |0&#62; 50% |1&#62;</desc>
				<rect x="0" y="765" width="51.9016" height="27" class="st6"/>
				<text x="5.43" y="774.9" class="st5">50% |0&#62; <tspan x="5.43" dy="1.2em" class="st7">50% |1&#62;</tspan></text>			</g>
			<g id="shape34-48" transform="translate(49.6418,-76.6025)">
				<title>Sheet.34</title>
				<desc>a² |0&#62; b² |1&#62;</desc>
				<rect x="0" y="765" width="40.7798" height="27" class="st6"/>
				<text x="5.35" y="774.9" class="st5">a² |0&#62; <tspan x="5.07" dy="1.2em" class="st7">b</tspan>² |1&#62;</text>			</g>
			<g id="shape35-52" transform="translate(0,-73.5882)">
				<title>Sheet.35</title>
				<desc>a²+b²=1</desc>
				<rect x="0" y="772" width="49.6418" height="20" class="st8"/>
				<text x="5.75" y="785.6" class="st5">a²+b²=1</text>			</g>
			<g id="shape36-55" transform="translate(49.1036,-3.44118)">
				<title>Sheet.36</title>
				<desc>e² |0&#62; f² |1&#62;</desc>
				<rect x="0" y="765" width="40.7798" height="27" class="st6"/>
				<text x="5.24" y="774.9" class="st5">e² |0&#62; <tspan x="6.4" dy="1.2em" class="st7">f</tspan>² |1&#62;</text>			</g>
			<g id="shape37-59">
				<title>Sheet.37</title>
				<desc>e²+f²=1</desc>
				<rect x="0" y="772" width="49.6418" height="20" class="st8"/>
				<text x="6.96" y="785.6" class="st5">e²+f²=1</text>			</g>
			<g id="shape39-62" transform="translate(49.2202,-40.1912)">
				<title>Sheet.39</title>
				<desc>c² |0&#62; d² |1&#62;</desc>
				<rect x="0" y="765" width="40.7798" height="27" class="st6"/>
				<text x="5.69" y="774.9" class="st5">c² |0&#62; <tspan x="5.07" dy="1.2em" class="st7">d</tspan>² |1&#62;</text>			</g>
			<g id="shape40-66" transform="translate(0.116573,-36.2206)">
				<title>Sheet.40</title>
				<desc>c²+d²=1</desc>
				<rect x="0" y="772" width="49.6418" height="20" class="st8"/>
				<text x="6.08" y="785.6" class="st5">c²+d²=1</text>			</g>
			<g id="shape42-69" transform="translate(1.71569,-87.8824)">
				<title>Sheet.42</title>
				<desc>qubit 0</desc>
				<rect x="0" y="772" width="48.2059" height="20" class="st8"/>
				<text x="6.86" y="785.6" class="st5">qubit 0</text>			</g>
			<g id="shape43-72" transform="translate(1.71569,-50.9412)">
				<title>Sheet.43</title>
				<desc>qubit 1</desc>
				<rect x="0" y="772" width="48.2059" height="20" class="st8"/>
				<text x="6.86" y="785.6" class="st5">qubit 1</text>			</g>
			<g id="shape44-75" transform="translate(1.71569,-14.4118)">
				<title>Sheet.44</title>
				<desc>qubit 2</desc>
				<rect x="0" y="772" width="48.2059" height="20" class="st8"/>
				<text x="6.86" y="785.6" class="st5">qubit 2</text>			</g>
		</g>
	</g>
</svg>
