<?xml version="1.0" encoding="UTF-8" standalone="no"?>
<!DOCTYPE svg PUBLIC "-//W3C//DTD SVG 1.1//EN" "http://www.w3.org/Graphics/SVG/1.1/DTD/svg11.dtd">
<!-- Generated by Microsoft Visio, SVG Export bob-0-.svg Page-1 -->
<svg xmlns="http://www.w3.org/2000/svg" xmlns:xlink="http://www.w3.org/1999/xlink" xmlns:ev="http://www.w3.org/2001/xml-events"
		width="8.5in" height="11in" viewBox="0 0 612 792" xml:space="preserve" color-interpolation-filters="sRGB" class="st9">
	<title>Bob&#39;s circuit</title>

	<style type="text/css">
	<![CDATA[
		.st1 {stroke:#000000;stroke-linecap:round;stroke-linejoin:round;stroke-width:1}
		.st2 {fill:#000000;stroke:#000000;stroke-linecap:round;stroke-linejoin:round;stroke-width:0.75}
		.st3 {fill:none;stroke:#000000;stroke-linecap:round;stroke-linejoin:round;stroke-width:1}
		.st4 {fill:#ffffff;stroke:#000000;stroke-linecap:round;stroke-linejoin:round;stroke-width:1}
		.st5 {fill:#000000;font-family:Calibri;font-size:1.00001em}
		.st6 {fill:#ffffff;stroke:none;stroke-linecap:round;stroke-linejoin:round;stroke-width:0.75}
		.st7 {font-size:1em}
		.st8 {fill:none;stroke:none;stroke-linecap:round;stroke-linejoin:round;stroke-width:0.75}
		.st9 {fill:none;fill-rule:evenodd;font-size:12px;overflow:visible;stroke-linecap:square;stroke-miterlimit:3}
	]]>
	</style>

	<g>
		<title>Page-1</title>
		<g id="group51-1" transform="translate(24.84,-663.186)">
			<title>Sheet.51</title>
			<g id="group20-2" transform="translate(139.5,-13.1742)">
				<title>Sheet.20</title>
				<g id="shape15-3" transform="translate(795.991,751.267) rotate(90)">
					<title>Sheet.15</title>
					<path d="M0 792 L40.5 792" class="st1"/>
				</g>
				<g id="shape16-6" transform="translate(1.53653,-38.4248)">
					<title>Sheet.16</title>
					<ellipse cx="2.30357" cy="789.696" rx="2.30357" ry="2.30357" class="st2"/>
				</g>
				<g id="shape17-8">
					<title>Sheet.17</title>
					<ellipse cx="4.08552" cy="787.914" rx="4.08552" ry="4.08552" class="st3"/>
				</g>
			</g>
			<g id="shape21-10" transform="translate(54,-53.9562)">
				<title>Sheet.21</title>
				<path d="M0 792 L315 792" class="st1"/>
			</g>
			<g id="shape22-13" transform="translate(54,-17.2062)">
				<title>Sheet.22</title>
				<path d="M0 792 L315 792" class="st1"/>
			</g>
			<g id="shape23-16" transform="translate(54,-90.8133)">
				<title>Sheet.23</title>
				<path d="M0 792 L315 792" class="st1"/>
			</g>
			<g id="shape2-19" transform="translate(220.5,-76.9737)">
				<title>Sheet.2</title>
				<desc>S Gate</desc>
				<rect x="0" y="765" width="63" height="27" class="st4"/>
				<text x="15.73" y="782.1" class="st5">S Gate</text>			</g>
			<g id="shape1-22" transform="translate(67.5,-76.4562)">
				<title>Sheet.1</title>
				<desc>S Gate</desc>
				<rect x="0" y="765" width="63" height="27" class="st4"/>
				<text x="15.73" y="782.1" class="st5">S Gate</text>			</g>
			<g id="shape28-25" transform="translate(0,-76.4562)">
				<title>Sheet.28</title>
				<desc>50% |0&#62; 50% |1&#62;</desc>
				<rect x="0" y="765" width="54" height="27" class="st6"/>
				<text x="6.48" y="774.9" class="st5">50% |0&#62; <tspan x="6.48" dy="1.2em" class="st7">50% |1&#62;</tspan></text>			</g>
			<g id="shape32-29" transform="translate(0,-39.7895)">
				<title>Sheet.32</title>
				<desc>50% |0&#62; 50% |1&#62;</desc>
				<rect x="0" y="765" width="54" height="27" class="st6"/>
				<text x="6.48" y="774.9" class="st5">50% |0&#62; <tspan x="6.48" dy="1.2em" class="st7">50% |1&#62;</tspan></text>			</g>
			<g id="shape33-33" transform="translate(0,-3.12282)">
				<title>Sheet.33</title>
				<desc>50% |0&#62; 50% |1&#62;</desc>
				<rect x="0" y="765" width="54" height="27" class="st6"/>
				<text x="6.48" y="774.9" class="st5">50% |0&#62; <tspan x="6.48" dy="1.2em" class="st7">50% |1&#62;</tspan></text>			</g>
			<g id="group34-37" transform="translate(185.329,-14.9859)">
				<title>Sheet.34</title>
				<g id="shape25-38" transform="translate(795.991,712.081) rotate(90)">
					<title>Sheet.25</title>
					<path d="M0 792 L77.7 792" class="st1"/>
				</g>
				<g id="shape26-41" transform="translate(1.53653,1.13687E-13)">
					<title>Sheet.26</title>
					<ellipse cx="2.30357" cy="789.696" rx="2.30357" ry="2.30357" class="st2"/>
				</g>
				<g id="shape27-43" transform="translate(0,-71.7492)">
					<title>Sheet.27</title>
					<ellipse cx="4.08552" cy="787.914" rx="4.08552" ry="4.08552" class="st3"/>
				</g>
			</g>
			<g id="group35-45" transform="translate(342.414,-15.0395)">
				<title>Sheet.35</title>
				<g id="shape36-46" transform="translate(795.991,712.081) rotate(90)">
					<title>Sheet.36</title>
					<path d="M0 792 L77.7 792" class="st1"/>
				</g>
				<g id="shape37-49" transform="translate(1.53653,1.13687E-13)">
					<title>Sheet.37</title>
					<ellipse cx="2.30357" cy="789.696" rx="2.30357" ry="2.30357" class="st2"/>
				</g>
				<g id="shape38-51" transform="translate(0,-71.7492)">
					<title>Sheet.38</title>
					<ellipse cx="4.08552" cy="787.914" rx="4.08552" ry="4.08552" class="st3"/>
				</g>
			</g>
			<g id="shape3-53" transform="translate(256.5,-3.8501)">
				<title>Sheet.3</title>
				<desc>T Gate</desc>
				<rect x="0" y="765" width="63" height="27" class="st4"/>
				<text x="15.57" y="782.1" class="st5">T Gate</text>			</g>
			<g id="shape39-56" transform="translate(369,-76.4562)">
				<title>Sheet.39</title>
				<desc>50% |0&#62; 50% |1&#62;</desc>
				<rect x="0" y="765" width="54" height="27" class="st6"/>
				<text x="6.48" y="774.9" class="st5">50% |0&#62; <tspan x="6.48" dy="1.2em" class="st7">50% |1&#62;</tspan></text>			</g>
			<g id="shape40-60" transform="translate(369,-39.7895)">
				<title>Sheet.40</title>
				<desc>50% |0&#62; 50% |1&#62;</desc>
				<rect x="0" y="765" width="54" height="27" class="st6"/>
				<text x="6.48" y="774.9" class="st5">50% |0&#62; <tspan x="6.48" dy="1.2em" class="st7">50% |1&#62;</tspan></text>			</g>
			<g id="shape46-64" transform="translate(369,-3.78947)">
				<title>Sheet.46</title>
				<desc>g² |0&#62; h² |1&#62;</desc>
				<rect x="0" y="765" width="40.7798" height="27" class="st6"/>
				<text x="5.4" y="774.9" class="st5">g² |0&#62; <tspan x="5.07" dy="1.2em" class="st7">h</tspan>² |1&#62;</text>			</g>
			<g id="shape47-68" transform="translate(407.179,0)">
				<title>Sheet.47</title>
				<desc>g²+h²=1</desc>
				<rect x="0" y="772" width="49.6418" height="20" class="st8"/>
				<text x="5.8" y="785.6" class="st5">g²+h²=1</text>			</g>
			<g id="shape48-71" transform="translate(409.78,-15.2895)">
				<title>Sheet.48</title>
				<desc>qubit 2</desc>
				<rect x="0" y="772" width="43.4261" height="20" class="st8"/>
				<text x="4.47" y="785.6" class="st5">qubit 2</text>			</g>
		</g>
	</g>
</svg>
